<mxfile host="Electron" modified="2023-10-23T11:02:30.025Z" agent="Mozilla/5.0 (Windows NT 10.0; Win64; x64) AppleWebKit/537.36 (KHTML, like Gecko) draw.io/22.0.2 Chrome/114.0.5735.289 Electron/25.8.4 Safari/537.36" etag="zfkUrxAtgAOsOxioMkPv" version="22.0.2" type="device">
  <diagram id="J36mB31yPqEakBowdX1R" name="Задача">
    <mxGraphModel dx="1098" dy="828" grid="1" gridSize="10" guides="1" tooltips="1" connect="1" arrows="1" fold="1" page="1" pageScale="1" pageWidth="827" pageHeight="1169" math="0" shadow="0">
      <root>
        <mxCell id="0" />
        <mxCell id="1" parent="0" />
        <mxCell id="ep2CE-PpERo2OGTGCH82-1" value="" style="edgeStyle=orthogonalEdgeStyle;rounded=0;orthogonalLoop=1;jettySize=auto;html=1;entryX=0.5;entryY=0;entryDx=0;entryDy=0;fontSize=20;" parent="1" source="ep2CE-PpERo2OGTGCH82-2" target="ep2CE-PpERo2OGTGCH82-4" edge="1">
          <mxGeometry relative="1" as="geometry" />
        </mxCell>
        <mxCell id="ep2CE-PpERo2OGTGCH82-2" value="Begin" style="rounded=1;whiteSpace=wrap;html=1;arcSize=50;fontSize=20;" parent="1" vertex="1">
          <mxGeometry x="315" y="145" width="120" height="60" as="geometry" />
        </mxCell>
        <mxCell id="ep2CE-PpERo2OGTGCH82-3" value="" style="edgeStyle=orthogonalEdgeStyle;rounded=0;orthogonalLoop=1;jettySize=auto;html=1;fontSize=20;" parent="1" source="ep2CE-PpERo2OGTGCH82-4" target="ep2CE-PpERo2OGTGCH82-6" edge="1">
          <mxGeometry relative="1" as="geometry" />
        </mxCell>
        <mxCell id="ep2CE-PpERo2OGTGCH82-4" value="array[]" style="shape=parallelogram;perimeter=parallelogramPerimeter;whiteSpace=wrap;html=1;fixedSize=1;fontSize=20;" parent="1" vertex="1">
          <mxGeometry x="315" y="233" width="120" height="60" as="geometry" />
        </mxCell>
        <mxCell id="ep2CE-PpERo2OGTGCH82-5" value="" style="edgeStyle=orthogonalEdgeStyle;rounded=0;orthogonalLoop=1;jettySize=auto;html=1;fontSize=20;" parent="1" source="ep2CE-PpERo2OGTGCH82-6" target="ep2CE-PpERo2OGTGCH82-9" edge="1">
          <mxGeometry relative="1" as="geometry" />
        </mxCell>
        <mxCell id="ep2CE-PpERo2OGTGCH82-6" value="ArraySize = 0&lt;br style=&quot;font-size: 20px;&quot;&gt;Count = 0&lt;br style=&quot;font-size: 20px;&quot;&gt;" style="rounded=0;whiteSpace=wrap;html=1;fontSize=20;" parent="1" vertex="1">
          <mxGeometry x="305" y="323" width="140" height="77" as="geometry" />
        </mxCell>
        <mxCell id="8sI8_AqOkl2x6x-PPcpn-4" value="" style="edgeStyle=orthogonalEdgeStyle;rounded=0;orthogonalLoop=1;jettySize=auto;html=1;fontSize=20;" parent="1" source="ep2CE-PpERo2OGTGCH82-9" target="8sI8_AqOkl2x6x-PPcpn-2" edge="1">
          <mxGeometry relative="1" as="geometry" />
        </mxCell>
        <mxCell id="8sI8_AqOkl2x6x-PPcpn-7" value="yes" style="edgeLabel;html=1;align=center;verticalAlign=middle;resizable=0;points=[];fontSize=20;" parent="8sI8_AqOkl2x6x-PPcpn-4" vertex="1" connectable="0">
          <mxGeometry x="-0.0909" relative="1" as="geometry">
            <mxPoint x="-22" as="offset" />
          </mxGeometry>
        </mxCell>
        <mxCell id="8sI8_AqOkl2x6x-PPcpn-35" style="edgeStyle=orthogonalEdgeStyle;rounded=0;orthogonalLoop=1;jettySize=auto;html=1;entryX=1;entryY=0.5;entryDx=0;entryDy=0;fontSize=20;" parent="1" source="ep2CE-PpERo2OGTGCH82-9" target="ep2CE-PpERo2OGTGCH82-19" edge="1">
          <mxGeometry relative="1" as="geometry">
            <Array as="points">
              <mxPoint x="570" y="482" />
              <mxPoint x="570" y="820" />
            </Array>
          </mxGeometry>
        </mxCell>
        <mxCell id="8sI8_AqOkl2x6x-PPcpn-36" value="&lt;font style=&quot;font-size: 20px;&quot;&gt;no&lt;/font&gt;" style="edgeLabel;html=1;align=center;verticalAlign=middle;resizable=0;points=[];fontSize=20;" parent="8sI8_AqOkl2x6x-PPcpn-35" vertex="1" connectable="0">
          <mxGeometry x="-0.2533" y="-2" relative="1" as="geometry">
            <mxPoint x="16" as="offset" />
          </mxGeometry>
        </mxCell>
        <mxCell id="ep2CE-PpERo2OGTGCH82-9" value="&lt;font style=&quot;font-size: 20px;&quot;&gt;for (i=0; i &amp;lt; array.Length; i++)&amp;nbsp;&lt;/font&gt;" style="rhombus;whiteSpace=wrap;html=1;fontSize=20;" parent="1" vertex="1">
          <mxGeometry x="220" y="433" width="310" height="97" as="geometry" />
        </mxCell>
        <mxCell id="8sI8_AqOkl2x6x-PPcpn-5" style="edgeStyle=orthogonalEdgeStyle;rounded=0;orthogonalLoop=1;jettySize=auto;html=1;entryX=0;entryY=0.5;entryDx=0;entryDy=0;fontSize=20;" parent="1" source="ep2CE-PpERo2OGTGCH82-14" target="ep2CE-PpERo2OGTGCH82-9" edge="1">
          <mxGeometry relative="1" as="geometry">
            <Array as="points">
              <mxPoint x="20" y="750" />
              <mxPoint x="20" y="482" />
            </Array>
          </mxGeometry>
        </mxCell>
        <mxCell id="ep2CE-PpERo2OGTGCH82-14" value="Count ++" style="rounded=0;whiteSpace=wrap;html=1;fontSize=20;" parent="1" vertex="1">
          <mxGeometry x="275" y="720" width="200" height="60" as="geometry" />
        </mxCell>
        <mxCell id="8sI8_AqOkl2x6x-PPcpn-12" value="" style="edgeStyle=orthogonalEdgeStyle;rounded=0;orthogonalLoop=1;jettySize=auto;html=1;fontSize=20;" parent="1" source="ep2CE-PpERo2OGTGCH82-19" target="8sI8_AqOkl2x6x-PPcpn-11" edge="1">
          <mxGeometry relative="1" as="geometry" />
        </mxCell>
        <mxCell id="ep2CE-PpERo2OGTGCH82-19" value="ArraySize = Count" style="rounded=0;whiteSpace=wrap;html=1;fontSize=20;" parent="1" vertex="1">
          <mxGeometry x="280" y="790" width="190" height="60" as="geometry" />
        </mxCell>
        <mxCell id="ep2CE-PpERo2OGTGCH82-22" value="" style="edgeStyle=orthogonalEdgeStyle;rounded=0;orthogonalLoop=1;jettySize=auto;html=1;fontSize=20;" parent="1" source="ep2CE-PpERo2OGTGCH82-23" target="ep2CE-PpERo2OGTGCH82-24" edge="1">
          <mxGeometry relative="1" as="geometry">
            <Array as="points">
              <mxPoint x="710" y="920" />
            </Array>
          </mxGeometry>
        </mxCell>
        <mxCell id="ep2CE-PpERo2OGTGCH82-23" value="Print &quot;[ ]&quot;" style="shape=parallelogram;perimeter=parallelogramPerimeter;whiteSpace=wrap;html=1;fixedSize=1;fontSize=20;" parent="1" vertex="1">
          <mxGeometry x="550" y="890" width="120" height="60" as="geometry" />
        </mxCell>
        <mxCell id="ep2CE-PpERo2OGTGCH82-24" value="End" style="rounded=1;whiteSpace=wrap;html=1;arcSize=50;fontSize=20;" parent="1" vertex="1">
          <mxGeometry x="310" y="1551" width="120" height="60" as="geometry" />
        </mxCell>
        <mxCell id="_GU8zvSCyEOGG-UxckpU-1" value="&lt;em style=&quot;box-sizing: border-box; color: rgb(44, 45, 48); font-family: Onest, Roboto, &amp;quot;San Francisco&amp;quot;, &amp;quot;Helvetica Neue&amp;quot;, Helvetica, Arial; font-size: 15px; text-align: start; background-color: rgb(255, 255, 255);&quot;&gt;Задача&lt;/em&gt;: Написать программу, которая из имеющегося массива строк формирует новый массив из строк, длина которых меньше, либо равна 3 символам. Первоначальный массив можно ввести с клавиатуры, либо задать на старте выполнения алгоритма. При решении не рекомендуется пользоваться коллекциями, лучше обойтись исключительно массивами.&lt;br style=&quot;box-sizing: border-box; color: rgb(44, 45, 48); font-family: Onest, Roboto, &amp;quot;San Francisco&amp;quot;, &amp;quot;Helvetica Neue&amp;quot;, Helvetica, Arial; font-size: 15px; text-align: start; background-color: rgb(255, 255, 255);&quot;&gt;&lt;a style=&quot;box-sizing: border-box; background-color: rgb(255, 255, 255); color: rgb(37, 133, 238); cursor: pointer; overflow-wrap: break-word; font-family: Onest, Roboto, &amp;quot;San Francisco&amp;quot;, &amp;quot;Helvetica Neue&amp;quot;, Helvetica, Arial; font-size: 15px; text-align: start;&quot; target=&quot;_blank&quot; href=&quot;https://gb.ru/lessons/342339/homework&quot;&gt;&lt;/a&gt;&lt;br style=&quot;box-sizing: border-box; color: rgb(44, 45, 48); font-family: Onest, Roboto, &amp;quot;San Francisco&amp;quot;, &amp;quot;Helvetica Neue&amp;quot;, Helvetica, Arial; font-size: 15px; text-align: start; background-color: rgb(255, 255, 255);&quot;&gt;&lt;div style=&quot;text-align: left;&quot;&gt;&lt;em style=&quot;box-sizing: border-box; color: rgb(44, 45, 48); font-family: Onest, Roboto, &amp;quot;San Francisco&amp;quot;, &amp;quot;Helvetica Neue&amp;quot;, Helvetica, Arial; font-size: 15px; background-color: rgb(255, 255, 255);&quot;&gt;Примеры&lt;/em&gt;&lt;span style=&quot;color: rgb(44, 45, 48); font-family: Onest, Roboto, &amp;quot;San Francisco&amp;quot;, &amp;quot;Helvetica Neue&amp;quot;, Helvetica, Arial; font-size: 15px; text-align: start; background-color: rgb(255, 255, 255);&quot;&gt;:&lt;/span&gt;&lt;/div&gt;&lt;span style=&quot;color: rgb(44, 45, 48); font-family: Onest, Roboto, &amp;quot;San Francisco&amp;quot;, &amp;quot;Helvetica Neue&amp;quot;, Helvetica, Arial; background-color: rgb(255, 255, 255);&quot;&gt;&lt;div style=&quot;text-align: left;&quot;&gt;&lt;span style=&quot;font-size: 15px;&quot;&gt;[&lt;/span&gt;&lt;font style=&quot;font-size: 14px;&quot;&gt;“Hello”, “2”, “world”, “:-)”] → [“2”, “:-)”];&amp;nbsp; &amp;nbsp; [“1234”, “1567”, “-2”, “computer science”] → [“-2”];&amp;nbsp; [“Russia”, “Denmark”, “Kazan”] → []&lt;/font&gt;&lt;/div&gt;&lt;/span&gt;" style="text;html=1;strokeColor=none;fillColor=none;align=center;verticalAlign=middle;whiteSpace=wrap;rounded=0;" parent="1" vertex="1">
          <mxGeometry x="8" y="25" width="812" height="75" as="geometry" />
        </mxCell>
        <mxCell id="8sI8_AqOkl2x6x-PPcpn-3" value="" style="edgeStyle=orthogonalEdgeStyle;rounded=0;orthogonalLoop=1;jettySize=auto;html=1;fontSize=20;" parent="1" source="8sI8_AqOkl2x6x-PPcpn-2" target="ep2CE-PpERo2OGTGCH82-14" edge="1">
          <mxGeometry relative="1" as="geometry" />
        </mxCell>
        <mxCell id="8sI8_AqOkl2x6x-PPcpn-9" value="yes" style="edgeLabel;html=1;align=center;verticalAlign=middle;resizable=0;points=[];fontSize=20;" parent="8sI8_AqOkl2x6x-PPcpn-3" vertex="1" connectable="0">
          <mxGeometry x="-0.3091" relative="1" as="geometry">
            <mxPoint x="-21" as="offset" />
          </mxGeometry>
        </mxCell>
        <mxCell id="8sI8_AqOkl2x6x-PPcpn-6" style="edgeStyle=orthogonalEdgeStyle;rounded=0;orthogonalLoop=1;jettySize=auto;html=1;entryX=0;entryY=0.5;entryDx=0;entryDy=0;fontSize=20;" parent="1" source="8sI8_AqOkl2x6x-PPcpn-2" target="ep2CE-PpERo2OGTGCH82-9" edge="1">
          <mxGeometry relative="1" as="geometry">
            <Array as="points">
              <mxPoint x="160" y="625" />
              <mxPoint x="160" y="482" />
            </Array>
          </mxGeometry>
        </mxCell>
        <mxCell id="8sI8_AqOkl2x6x-PPcpn-10" value="no" style="edgeLabel;html=1;align=center;verticalAlign=middle;resizable=0;points=[];fontSize=20;" parent="8sI8_AqOkl2x6x-PPcpn-6" vertex="1" connectable="0">
          <mxGeometry x="-0.2548" y="2" relative="1" as="geometry">
            <mxPoint x="-14" as="offset" />
          </mxGeometry>
        </mxCell>
        <mxCell id="8sI8_AqOkl2x6x-PPcpn-2" value="&lt;font style=&quot;font-size: 20px;&quot;&gt;if (array[i].Length&amp;lt;4)&lt;/font&gt;" style="rhombus;whiteSpace=wrap;html=1;fontSize=20;" parent="1" vertex="1">
          <mxGeometry x="190" y="585" width="370" height="80" as="geometry" />
        </mxCell>
        <mxCell id="8sI8_AqOkl2x6x-PPcpn-14" value="" style="edgeStyle=orthogonalEdgeStyle;rounded=0;orthogonalLoop=1;jettySize=auto;html=1;fontSize=20;" parent="1" source="8sI8_AqOkl2x6x-PPcpn-11" target="ep2CE-PpERo2OGTGCH82-23" edge="1">
          <mxGeometry relative="1" as="geometry" />
        </mxCell>
        <mxCell id="8sI8_AqOkl2x6x-PPcpn-15" value="no" style="edgeLabel;html=1;align=center;verticalAlign=middle;resizable=0;points=[];fontSize=20;" parent="8sI8_AqOkl2x6x-PPcpn-14" vertex="1" connectable="0">
          <mxGeometry x="0.0118" y="2" relative="1" as="geometry">
            <mxPoint y="-13" as="offset" />
          </mxGeometry>
        </mxCell>
        <mxCell id="8sI8_AqOkl2x6x-PPcpn-17" value="" style="edgeStyle=orthogonalEdgeStyle;rounded=0;orthogonalLoop=1;jettySize=auto;html=1;fontSize=20;" parent="1" source="8sI8_AqOkl2x6x-PPcpn-11" edge="1">
          <mxGeometry relative="1" as="geometry">
            <mxPoint x="375" y="1010" as="targetPoint" />
          </mxGeometry>
        </mxCell>
        <mxCell id="8sI8_AqOkl2x6x-PPcpn-18" value="yes" style="edgeLabel;html=1;align=center;verticalAlign=middle;resizable=0;points=[];fontSize=20;" parent="8sI8_AqOkl2x6x-PPcpn-17" vertex="1" connectable="0">
          <mxGeometry x="0.16" y="-1" relative="1" as="geometry">
            <mxPoint x="-21" y="-9" as="offset" />
          </mxGeometry>
        </mxCell>
        <mxCell id="8sI8_AqOkl2x6x-PPcpn-11" value="ArraySize !=0" style="rhombus;whiteSpace=wrap;html=1;fontSize=20;" parent="1" vertex="1">
          <mxGeometry x="275" y="880" width="200" height="80" as="geometry" />
        </mxCell>
        <mxCell id="8sI8_AqOkl2x6x-PPcpn-26" value="" style="edgeStyle=orthogonalEdgeStyle;rounded=0;orthogonalLoop=1;jettySize=auto;html=1;fontSize=20;" parent="1" source="8sI8_AqOkl2x6x-PPcpn-19" target="8sI8_AqOkl2x6x-PPcpn-25" edge="1">
          <mxGeometry relative="1" as="geometry" />
        </mxCell>
        <mxCell id="8sI8_AqOkl2x6x-PPcpn-27" value="yes" style="edgeLabel;html=1;align=center;verticalAlign=middle;resizable=0;points=[];fontSize=20;" parent="8sI8_AqOkl2x6x-PPcpn-26" vertex="1" connectable="0">
          <mxGeometry x="-0.3246" y="4" relative="1" as="geometry">
            <mxPoint x="-29" y="6" as="offset" />
          </mxGeometry>
        </mxCell>
        <mxCell id="8sI8_AqOkl2x6x-PPcpn-29" style="edgeStyle=orthogonalEdgeStyle;rounded=0;orthogonalLoop=1;jettySize=auto;html=1;entryX=0;entryY=0.5;entryDx=0;entryDy=0;fontSize=20;" parent="1" source="8sI8_AqOkl2x6x-PPcpn-19" target="8sI8_AqOkl2x6x-PPcpn-20" edge="1">
          <mxGeometry relative="1" as="geometry">
            <Array as="points">
              <mxPoint x="160" y="1256" />
              <mxPoint x="160" y="1139" />
            </Array>
          </mxGeometry>
        </mxCell>
        <mxCell id="8sI8_AqOkl2x6x-PPcpn-30" value="no" style="edgeLabel;html=1;align=center;verticalAlign=middle;resizable=0;points=[];fontSize=20;" parent="8sI8_AqOkl2x6x-PPcpn-29" vertex="1" connectable="0">
          <mxGeometry x="-0.8531" y="-1" relative="1" as="geometry">
            <mxPoint y="-16" as="offset" />
          </mxGeometry>
        </mxCell>
        <mxCell id="8sI8_AqOkl2x6x-PPcpn-19" value="&lt;font style=&quot;font-size: 20px;&quot;&gt;if (array[i].Length&amp;lt;4)&lt;/font&gt;" style="rhombus;whiteSpace=wrap;html=1;fontSize=20;" parent="1" vertex="1">
          <mxGeometry x="190" y="1216" width="370" height="80" as="geometry" />
        </mxCell>
        <mxCell id="8sI8_AqOkl2x6x-PPcpn-21" value="" style="edgeStyle=orthogonalEdgeStyle;rounded=0;orthogonalLoop=1;jettySize=auto;html=1;fontSize=20;" parent="1" source="8sI8_AqOkl2x6x-PPcpn-20" target="8sI8_AqOkl2x6x-PPcpn-19" edge="1">
          <mxGeometry relative="1" as="geometry" />
        </mxCell>
        <mxCell id="8sI8_AqOkl2x6x-PPcpn-22" value="yes" style="edgeLabel;html=1;align=center;verticalAlign=middle;resizable=0;points=[];fontSize=20;" parent="8sI8_AqOkl2x6x-PPcpn-21" vertex="1" connectable="0">
          <mxGeometry x="-0.0997" y="8" relative="1" as="geometry">
            <mxPoint x="-23" y="-1" as="offset" />
          </mxGeometry>
        </mxCell>
        <mxCell id="8sI8_AqOkl2x6x-PPcpn-33" style="edgeStyle=orthogonalEdgeStyle;rounded=0;orthogonalLoop=1;jettySize=auto;html=1;entryX=1;entryY=0.5;entryDx=0;entryDy=0;fontSize=20;" parent="1" source="8sI8_AqOkl2x6x-PPcpn-20" target="8sI8_AqOkl2x6x-PPcpn-31" edge="1">
          <mxGeometry relative="1" as="geometry">
            <Array as="points">
              <mxPoint x="620" y="1139" />
              <mxPoint x="620" y="1480" />
            </Array>
          </mxGeometry>
        </mxCell>
        <mxCell id="8sI8_AqOkl2x6x-PPcpn-34" value="no" style="edgeLabel;html=1;align=center;verticalAlign=middle;resizable=0;points=[];fontSize=20;" parent="8sI8_AqOkl2x6x-PPcpn-33" vertex="1" connectable="0">
          <mxGeometry x="-0.8924" y="-2" relative="1" as="geometry">
            <mxPoint x="9" y="-21" as="offset" />
          </mxGeometry>
        </mxCell>
        <mxCell id="8sI8_AqOkl2x6x-PPcpn-20" value="&lt;font style=&quot;font-size: 20px;&quot;&gt;for (i=0; i &amp;lt; array.Length; i++)&amp;nbsp;&lt;/font&gt;" style="rhombus;whiteSpace=wrap;html=1;fontSize=20;" parent="1" vertex="1">
          <mxGeometry x="190" y="1099" width="370" height="80" as="geometry" />
        </mxCell>
        <mxCell id="8sI8_AqOkl2x6x-PPcpn-24" value="" style="edgeStyle=orthogonalEdgeStyle;rounded=0;orthogonalLoop=1;jettySize=auto;html=1;fontSize=20;" parent="1" source="8sI8_AqOkl2x6x-PPcpn-23" target="8sI8_AqOkl2x6x-PPcpn-20" edge="1">
          <mxGeometry relative="1" as="geometry" />
        </mxCell>
        <mxCell id="8sI8_AqOkl2x6x-PPcpn-23" value="Count = 0&lt;br style=&quot;font-size: 20px;&quot;&gt;myArray[ArraySize]" style="rounded=0;whiteSpace=wrap;html=1;fontSize=20;" parent="1" vertex="1">
          <mxGeometry x="250" y="1010" width="250" height="60" as="geometry" />
        </mxCell>
        <mxCell id="8sI8_AqOkl2x6x-PPcpn-28" style="edgeStyle=orthogonalEdgeStyle;rounded=0;orthogonalLoop=1;jettySize=auto;html=1;entryX=0;entryY=0.5;entryDx=0;entryDy=0;fontSize=20;" parent="1" source="8sI8_AqOkl2x6x-PPcpn-25" target="8sI8_AqOkl2x6x-PPcpn-20" edge="1">
          <mxGeometry relative="1" as="geometry">
            <Array as="points">
              <mxPoint x="120" y="1380" />
              <mxPoint x="120" y="1139" />
            </Array>
          </mxGeometry>
        </mxCell>
        <mxCell id="8sI8_AqOkl2x6x-PPcpn-25" value="myArray[Count] = array[i]&lt;br style=&quot;font-size: 20px;&quot;&gt;Count++" style="rounded=0;whiteSpace=wrap;html=1;fontSize=20;" parent="1" vertex="1">
          <mxGeometry x="280" y="1340" width="190" height="90" as="geometry" />
        </mxCell>
        <mxCell id="8sI8_AqOkl2x6x-PPcpn-32" value="" style="edgeStyle=orthogonalEdgeStyle;rounded=0;orthogonalLoop=1;jettySize=auto;html=1;fontSize=20;" parent="1" source="8sI8_AqOkl2x6x-PPcpn-31" target="ep2CE-PpERo2OGTGCH82-24" edge="1">
          <mxGeometry relative="1" as="geometry" />
        </mxCell>
        <mxCell id="8sI8_AqOkl2x6x-PPcpn-31" value="Print myArray[]" style="shape=parallelogram;perimeter=parallelogramPerimeter;whiteSpace=wrap;html=1;fixedSize=1;fontSize=20;" parent="1" vertex="1">
          <mxGeometry x="280" y="1450" width="180" height="60" as="geometry" />
        </mxCell>
      </root>
    </mxGraphModel>
  </diagram>
</mxfile>
